<?xml version="1.0" encoding="utf-8"?>
<!-- Generator: Adobe Illustrator 24.0.0, SVG Export Plug-In . SVG Version: 6.00 Build 0)  -->
<svg version="1.1" id="Layer_1" xmlns="http://www.w3.org/2000/svg" xmlns:xlink="http://www.w3.org/1999/xlink" x="0px" y="0px"
	 viewBox="0 0 219.62 219.62" style="enable-background:new 0 0 219.62 219.62;" xml:space="preserve">
<style type="text/css">
	.st0{fill: #fff;}
</style>
<g>
	<g>
		<path class="st0" d="M209.44,95.69c-1.58-7.61-6.35-12.71-13.64-14.18c-7.73-1.55-15.69-1.26-23.53,0.73
			c-12.15,3.08-22.92,8.72-32.84,16.3c-8.63,6.59-16.19,14.12-21.72,23.49c-3.71,6.29-5.92,12.94-3.42,20.42
			c2.2,6.58,7.21,9.88,12.86,9.8c1.1-0.01,2.24-0.07,2.27-1.65c0.04-2.19,0.91-4.19,1.46-6.26c2.4-9.04,7.44-16.73,12.84-24.16
			c6.23-8.56,13.45-16.24,22.24-22.22c5.85-3.98,12-7.45,19.49-7.22c1.76,0.05,3.19,0.53,3.95,2.08c1.02,2.1,1.89,4.34,1.35,6.73
			c-0.83,3.71-1.56,7.47-2.79,11.05c-3.91,11.39-9.76,21.74-17.78,30.75c-3.72,4.18-7.99,7.77-13.52,9.47
			c-0.62,0.19-1.27,0.77-1.85,0.21c-0.52-0.51-0.17-1.23,0.01-1.88c1.81-6.47,4.58-12.53,7.79-18.41c1.03-1.88,1.94-3.84,2.86-5.78
			c0.44-0.93,0.22-1.86-0.47-2.55c-0.6-0.59-1.34-0.32-2.1-0.06c-1.3,0.44-2.36,1.17-3.38,2.05c-7.81,6.74-13.45,15.18-18.3,24.11
			c-1.76,3.24-4.08,5.14-7.3,6.23c-6.32,2.15-12.84,1.91-19.26,0.87c-8.23-1.34-16.1-4.08-23.95-6.87
			c-9.44-3.36-18.52-7.57-27.85-11.2c-10.77-4.19-21.31-8.91-32.92-10.6c-6.7-0.97-12.32,0.47-17.09,5.27
			c-3.47,3.48-4.59,10.94-2.26,15.29c1.7,3.17,1.69,3.17,4.04,0.62c0.33-0.36,0.77-0.63,1.16-0.94c4.35-3.51,9.48-2.97,14.33-2.1
			c5.58,1,10.99,2.81,16.29,5.02c5.21,2.18,10.35,4.49,15.43,6.92c5.88,2.82,11.44,6.3,17.35,9.04c8.07,3.75,16.09,7.6,24.56,10.53
			c9.58,3.31,19.05,4.7,29.19,2.19c-0.08,3.03,0.65,5.81,1.5,8.61c2.69,8.81,9.8,13.05,19.13,10.25c2.16-0.65,2.41-1.53,1.58-3.38
			c-0.91-2.02-2.14-3.86-2.63-6.13c-1.73-8.09-1.78-16.21-0.81-24.36c0.14-1.2,0.06-1.34-1.05-1.47c-2.49-0.29-4.99-0.7-7.32-2.52
			c0.5-0.04,0.71-0.08,0.91-0.06c6.76,0.63,13.49,0.43,19.86-2.06c8.05-3.15,15.48-7.43,22.15-13.03
			c7.27-6.1,13.55-12.98,18.31-21.25C209.56,114.71,211.49,105.58,209.44,95.69z"/>
		<path class="st0" d="M56,127.58c5.07-6.68,9.01-14.05,13.05-21.36c5.32-9.63,10.36-19.41,16.05-28.84
			c5.51-9.13,11.43-17.87,20.06-24.4c6.3-4.77,13.25-7.15,21.22-5.46c4.68,0.99,8.68,3.22,11.94,6.72c0.96,1.03,1.56,1.12,2.04-0.31
			c0.89-2.66,2.09-5.26,2.12-8.12c0.07-5.77-1.76-10.88-5.51-15.3c-5.95-7.01-13.3-10.4-22.64-9.12
			c-6.41,0.88-12.19,3.34-17.27,7.12c-7.04,5.24-12.72,11.88-17.53,19.2c-5.77,8.78-10.83,17.99-15.6,27.35
			c-4.39,8.63-8.59,17.35-12.93,26c-4.26,8.5-8.72,16.88-15.17,24.39c5.83,0.91,11.49,1.51,16.88,3.27
			C54.36,129.26,55.08,128.81,56,127.58z"/>
	</g>
</g>
</svg>
